<svg width="512" height="512" viewBox="0 0 512 512" fill="none" xmlns="http://www.w3.org/2000/svg">
<rect width="512" height="512" rx="114" fill="#161616"/>
<path d="M300.352 302.934C342.029 261.257 376.27 219.379 397.87 185.124C408.604 168.101 416.672 152.251 420.734 138.818C422.761 132.114 424.033 125.236 423.701 118.701C423.363 112.049 421.27 104.748 415.552 99.0298C409.834 93.3116 402.533 91.2192 395.881 90.8809C389.346 90.5485 382.468 91.8208 375.764 93.848C362.33 97.91 346.48 105.978 329.458 116.712C295.203 138.312 253.325 172.553 211.648 214.23C169.971 255.907 135.73 297.785 114.13 332.04C103.396 349.062 95.3282 364.912 91.2662 378.346C89.2389 385.05 87.9667 391.928 88.2991 398.462C88.6374 405.114 90.7298 412.416 96.4479 418.134C102.166 423.852 109.467 425.944 116.119 426.283C122.654 426.615 129.532 425.343 136.236 423.316C149.67 419.254 165.52 411.186 182.542 400.452C216.797 378.852 258.675 344.611 300.352 302.934Z" fill="white" stroke="#161616" stroke-width="30"/>
<circle cx="255.451" cy="258.582" r="127.811" transform="rotate(-45 255.451 258.582)" fill="white"/>
<mask id="mask0_2_53" style="mask-type:alpha" maskUnits="userSpaceOnUse" x="64" y="6" width="384" height="385">
<rect x="64" y="304.133" width="421.281" height="121.777" transform="rotate(-45 64 304.133)" fill="#D9D9D9"/>
</mask>
<g mask="url(#mask0_2_53)">
<path d="M300.352 302.934C342.029 261.257 376.27 219.379 397.87 185.124C408.604 168.101 416.672 152.251 420.734 138.818C422.761 132.114 424.033 125.236 423.701 118.701C423.363 112.049 421.27 104.748 415.552 99.0298C409.834 93.3116 402.533 91.2192 395.881 90.8809C389.346 90.5485 382.468 91.8208 375.764 93.848C362.33 97.91 346.48 105.978 329.458 116.712C295.203 138.312 253.325 172.553 211.648 214.23C169.971 255.907 135.73 297.785 114.13 332.04C103.396 349.062 95.3282 364.912 91.2662 378.346C89.2389 385.05 87.9667 391.928 88.2991 398.462C88.6374 405.114 90.7298 412.416 96.4479 418.134C102.166 423.852 109.467 425.944 116.119 426.283C122.654 426.615 129.532 425.343 136.236 423.316C149.67 419.254 165.52 411.186 182.542 400.452C216.797 378.852 258.675 344.611 300.352 302.934Z" fill="white" stroke="#161616" stroke-width="30"/>
</g>
</svg>
